<?xml version="1.0" encoding="UTF-8" standalone="no"?>
<!-- Created with Inkscape (http://www.inkscape.org/) -->

<svg
   xmlns:dc="http://purl.org/dc/elements/1.1/"
   xmlns:cc="http://creativecommons.org/ns#"
   xmlns:rdf="http://www.w3.org/1999/02/22-rdf-syntax-ns#"
   xmlns:svg="http://www.w3.org/2000/svg"
   xmlns="http://www.w3.org/2000/svg"
   xmlns:xlink="http://www.w3.org/1999/xlink"
   xmlns:sodipodi="http://sodipodi.sourceforge.net/DTD/sodipodi-0.dtd"
   xmlns:inkscape="http://www.inkscape.org/namespaces/inkscape"
   width="594.45166"
   height="491.06323"
   id="svg2"
   version="1.1"
   inkscape:version="0.48.2 r9819"
   sodipodi:docname="stb-tester+setup.svg"
   inkscape:export-filename="/home/william.manley/Pictures/stb-tester setup.png"
   inkscape:export-xdpi="90"
   inkscape:export-ydpi="90">
  <defs
     id="defs4">
    <inkscape:perspective
       sodipodi:type="inkscape:persp3d"
       inkscape:vp_x="257.63822 : 304.73939 : 1"
       inkscape:vp_y="0 : 2195.4965 : 0"
       inkscape:vp_z="1393.2161 : 459.98445 : 1"
       inkscape:persp3d-origin="690.92316 : -86.990228 : 1"
       id="perspective4010" />
    <linearGradient
       id="linearGradient3996">
      <stop
         style="stop-color:#ffffff;stop-opacity:1;"
         offset="0"
         id="stop3998" />
      <stop
         id="stop4006"
         offset="0.19354838"
         style="stop-color:#ffffff;stop-opacity:1;" />
      <stop
         style="stop-color:#ffffff;stop-opacity:0;"
         offset="1"
         id="stop4000" />
    </linearGradient>
    <marker
       inkscape:stockid="Arrow1Sstart"
       orient="auto"
       refY="0"
       refX="0"
       id="Arrow1Sstart"
       style="overflow:visible">
      <path
         id="path3971"
         d="M 0,0 5,-5 -12.5,0 5,5 0,0 z"
         style="fill-rule:evenodd;stroke:#000000;stroke-width:1pt;marker-start:none"
         transform="matrix(0.2,0,0,0.2,1.2,0)"
         inkscape:connector-curvature="0" />
    </marker>
    <marker
       inkscape:stockid="Arrow1Mend"
       orient="auto"
       refY="0"
       refX="0"
       id="Arrow1Mend"
       style="overflow:visible">
      <path
         id="path3968"
         d="M 0,0 5,-5 -12.5,0 5,5 0,0 z"
         style="fill-rule:evenodd;stroke:#000000;stroke-width:1pt;marker-start:none"
         transform="matrix(-0.4,0,0,-0.4,-4,0)"
         inkscape:connector-curvature="0" />
    </marker>
    <marker
       inkscape:stockid="Arrow1Lend"
       orient="auto"
       refY="0"
       refX="0"
       id="Arrow1Lend"
       style="overflow:visible">
      <path
         id="path3962"
         d="M 0,0 5,-5 -12.5,0 5,5 0,0 z"
         style="fill-rule:evenodd;stroke:#000000;stroke-width:1pt;marker-start:none"
         transform="matrix(-0.8,0,0,-0.8,-10,0)"
         inkscape:connector-curvature="0" />
    </marker>
    <inkscape:path-effect
       effect="spiro"
       id="path-effect3097"
       is_visible="true" />
    <inkscape:path-effect
       effect="spiro"
       id="path-effect3089"
       is_visible="true" />
    <inkscape:perspective
       sodipodi:type="inkscape:persp3d"
       inkscape:vp_x="258.64837 : 304.73939 : 1"
       inkscape:vp_y="0 : 2195.4965 : 0"
       inkscape:vp_z="1394.2263 : 459.98445 : 1"
       inkscape:persp3d-origin="691.93331 : -86.990228 : 1"
       id="perspective3013" />
  </defs>
  <sodipodi:namedview
     id="base"
     pagecolor="#ffffff"
     bordercolor="#666666"
     borderopacity="1.0"
     inkscape:pageopacity="0.0"
     inkscape:pageshadow="2"
     inkscape:zoom="0.98994949"
     inkscape:cx="230.34698"
     inkscape:cy="323.67804"
     inkscape:document-units="px"
     inkscape:current-layer="layer1"
     showgrid="false"
     inkscape:window-width="1393"
     inkscape:window-height="1046"
     inkscape:window-x="16"
     inkscape:window-y="0"
     inkscape:window-maximized="0"
     fit-margin-top="0"
     fit-margin-left="0"
     fit-margin-right="0"
     fit-margin-bottom="0" />
  <metadata
     id="metadata7">
    <rdf:RDF>
      <cc:Work
         rdf:about="">
        <dc:format>image/svg+xml</dc:format>
        <dc:type
           rdf:resource="http://purl.org/dc/dcmitype/StillImage" />
        <dc:title />
      </cc:Work>
    </rdf:RDF>
  </metadata>
  <g
     inkscape:label="Layer 1"
     inkscape:groupmode="layer"
     id="layer1"
     transform="translate(-81.860091,-213.38744)">
    <text
       xml:space="preserve"
       style="font-size:12px;font-style:normal;font-weight:bold;text-align:center;line-height:125%;letter-spacing:0px;word-spacing:0px;text-anchor:middle;fill:#000000;fill-opacity:1;stroke:none;font-family:Sans;-inkscape-font-specification:Sans Bold"
       x="269.24176"
       y="529.91895"
       id="text2993"
       sodipodi:linespacing="125%"><tspan
         sodipodi:role="line"
         id="tspan2995"
         x="269.24176"
         y="529.91895">PC</tspan></text>
    <text
       xml:space="preserve"
       style="font-size:12px;font-style:normal;font-weight:bold;text-align:center;line-height:125%;letter-spacing:0px;word-spacing:0px;text-anchor:middle;fill:#000000;fill-opacity:1;stroke:none;font-family:Sans;-inkscape-font-specification:Sans Bold"
       x="630.23364"
       y="432.56073"
       id="text2997"
       sodipodi:linespacing="125%"><tspan
         sodipodi:role="line"
         id="tspan2999"
         x="630.23364"
         y="432.56073">Hauppauge</tspan><tspan
         sodipodi:role="line"
         x="630.23364"
         y="447.56073"
         id="tspan3104">HD PVR</tspan><tspan
         sodipodi:role="line"
         x="630.23364"
         y="462.56073"
         id="tspan3109">video capture</tspan></text>
    <text
       xml:space="preserve"
       style="font-size:12px;font-style:normal;font-weight:bold;text-align:center;line-height:125%;letter-spacing:0px;word-spacing:0px;text-anchor:middle;fill:#000000;fill-opacity:1;stroke:none;font-family:Sans;-inkscape-font-specification:Sans Bold"
       x="568.09161"
       y="590.97333"
       id="text3001"
       sodipodi:linespacing="125%"><tspan
         sodipodi:role="line"
         id="tspan3003"
         x="568.09161"
         y="590.97333">HD FURY III</tspan><tspan
         sodipodi:role="line"
         x="568.09161"
         y="605.97333"
         id="tspan3143">HDCP stripper</tspan></text>
    <g
       id="g3068"
       transform="translate(53.571429,41.703412)">
      <text
         sodipodi:linespacing="125%"
         id="text3005"
         y="660.25116"
         x="391.08582"
         style="font-size:12px;font-style:normal;font-variant:normal;font-weight:bold;font-stretch:normal;text-align:center;line-height:125%;letter-spacing:0px;word-spacing:0px;writing-mode:lr-tb;text-anchor:middle;fill:#000000;fill-opacity:1;stroke:none;font-family:Sans;-inkscape-font-specification:Sans Bold"
         xml:space="preserve"><tspan
           y="660.25116"
           x="391.08582"
           id="tspan3007"
           sodipodi:role="line">Set-top box</tspan></text>
      <g
         id="g3064">
        <rect
           style="fill:#333333;stroke:#ffffff"
           id="rect3060"
           width="167.14285"
           height="26.428572"
           x="307.85715"
           y="623.07648" />
        <path
           sodipodi:type="arc"
           style="fill:#333333;stroke:#8080ff"
           id="path3062"
           sodipodi:cx="392.85715"
           sodipodi:cy="635.93359"
           sodipodi:rx="8.5714283"
           sodipodi:ry="8.5714283"
           d="m 401.42858,635.93359 c 0,4.73387 -3.83756,8.57143 -8.57143,8.57143 -4.73387,0 -8.57143,-3.83756 -8.57143,-8.57143 0,-4.73387 3.83756,-8.57142 8.57143,-8.57142 4.73387,0 8.57143,3.83755 8.57143,8.57142 z"
           transform="translate(-1.4285736,0)" />
      </g>
    </g>
    <text
       xml:space="preserve"
       style="font-size:12px;font-style:normal;font-weight:bold;line-height:125%;letter-spacing:0px;word-spacing:0px;fill:#000000;fill-opacity:1;stroke:none;font-family:Sans;-inkscape-font-specification:Sans Bold"
       x="241.42857"
       y="670.85126"
       id="text3079"
       sodipodi:linespacing="125%"><tspan
         sodipodi:role="line"
         id="tspan3081"
         x="241.42857"
         y="670.85126">IR Blaster</tspan></text>
    <path
       style="fill:#ff0000;stroke:#ff0000;stroke-width:2;stroke-linecap:butt;stroke-linejoin:miter;stroke-miterlimit:4;stroke-opacity:1;stroke-dasharray:none"
       d="m 512.14286,432.36218 0,-93.57143"
       id="path3105"
       inkscape:connector-curvature="0" />
    <path
       style="fill:#008000;stroke:#008000;stroke-width:2;stroke-linecap:butt;stroke-linejoin:miter;stroke-miterlimit:4;stroke-opacity:1;stroke-dasharray:none"
       d="m 517.14286,432.36218 -0.71429,-95"
       id="path3107"
       inkscape:connector-curvature="0" />
    <path
       style="fill:#0000ff;stroke:#0000ff;stroke-width:2;stroke-linecap:butt;stroke-linejoin:miter;stroke-miterlimit:4;stroke-opacity:1;stroke-dasharray:none"
       d="m 521.42857,432.36218 0.71429,-94.28571"
       id="path3109"
       inkscape:connector-curvature="0" />
    <g
       id="g3075"
       transform="matrix(0.82200068,0,0,0.82200068,173.32755,72.817788)">
      <rect
         ry="7.3585801"
         rx="6.6896186"
         y="171.50917"
         x="292.94424"
         height="168.69548"
         width="311.12698"
         id="rect2985"
         style="fill:#000000;stroke:#ffffff" />
      <rect
         ry="0"
         rx="0"
         y="189.69191"
         x="312.13715"
         height="131.31982"
         width="272.74118"
         id="rect2987"
         style="fill:#4d4d4d;stroke:#ffffff" />
    </g>
    <text
       xml:space="preserve"
       style="font-size:12px;font-style:normal;font-weight:bold;text-align:center;line-height:125%;letter-spacing:0px;word-spacing:0px;text-anchor:middle;fill:#000000;fill-opacity:1;stroke:none;font-family:Sans;-inkscape-font-specification:Sans Bold"
       x="444.59744"
       y="366.51578"
       id="text3009"
       sodipodi:linespacing="125%"><tspan
         sodipodi:role="line"
         id="tspan3011"
         x="444.59744"
         y="366.51578">TV</tspan></text>
    <text
       xml:space="preserve"
       style="font-size:12px;font-style:normal;font-weight:normal;line-height:125%;letter-spacing:0px;word-spacing:0px;fill:#000000;fill-opacity:1;stroke:none;font-family:Sans"
       x="501.01016"
       y="644.41223"
       id="text3111"
       sodipodi:linespacing="125%"><tspan
         sodipodi:role="line"
         id="tspan3113"
         x="501.01016"
         y="644.41223">HDMI</tspan></text>
    <text
       xml:space="preserve"
       style="font-size:12px;font-style:normal;font-weight:normal;line-height:125%;letter-spacing:0px;word-spacing:0px;fill:#000000;fill-opacity:1;stroke:none;font-family:Sans"
       x="515.71429"
       y="504.06561"
       id="text3115"
       sodipodi:linespacing="125%"><tspan
         sodipodi:role="line"
         id="tspan3117"
         x="515.71429"
         y="504.06561">Component Video</tspan></text>
    <text
       xml:space="preserve"
       style="font-size:12px;font-style:normal;font-weight:normal;line-height:125%;letter-spacing:0px;word-spacing:0px;fill:#000000;fill-opacity:1;stroke:none;font-family:Sans"
       x="525.71429"
       y="389.3107"
       id="text3119"
       sodipodi:linespacing="125%"><tspan
         sodipodi:role="line"
         id="tspan3121"
         x="525.71429"
         y="389.3107">Component Video</tspan></text>
    <path
       style="fill:none;stroke:#000000;stroke-width:3;stroke-linecap:butt;stroke-linejoin:miter;stroke-miterlimit:4;stroke-opacity:1;stroke-dasharray:none"
       d="m 483.76577,443.07647 -185.71428,0"
       id="path3125"
       inkscape:connector-curvature="0" />
    <text
       xml:space="preserve"
       style="font-size:12px;font-style:normal;font-weight:normal;line-height:125%;letter-spacing:0px;word-spacing:0px;fill:#000000;fill-opacity:1;stroke:none;font-family:Sans"
       x="368.66425"
       y="455.93362"
       id="text3127"
       sodipodi:linespacing="125%"><tspan
         sodipodi:role="line"
         id="tspan3129"
         x="368.66425"
         y="455.93362">USB</tspan></text>
    <path
       style="fill:none;stroke:#000000;stroke-width:3;stroke-linecap:butt;stroke-linejoin:miter;stroke-miterlimit:4;stroke-opacity:1;stroke-dasharray:none"
       d="m 497.61204,666.55508 0.71428,-51.42857"
       id="path3131"
       inkscape:connector-curvature="0" />
    <path
       style="fill:#333333;stroke:#000000;stroke-width:1px;stroke-linecap:butt;stroke-linejoin:miter;stroke-opacity:1"
       d="m 254.22593,642.2 c 0,0 39.18059,-1.08195 60.60916,6.06091 l -3.03046,17.1726 C 287.16177,653.6478 253.21578,650.28122 253.21578,650.28122 z"
       id="path3133"
       inkscape:connector-curvature="0"
       sodipodi:nodetypes="ccccc" />
    <path
       sodipodi:type="arc"
       style="fill:none;stroke:#800000"
       id="path3135"
       sodipodi:cx="232.5"
       sodipodi:cy="632.36218"
       sodipodi:rx="14.285714"
       sodipodi:ry="14.285714"
       d="m 246.75865,631.48323 c 0.20605,3.34255 -0.76876,6.65126 -2.75414,9.34819"
       transform="translate(72.142857,21.703412)"
       sodipodi:start="6.2216194"
       sodipodi:end="6.9177741"
       sodipodi:open="true" />
    <path
       sodipodi:end="6.9177741"
       sodipodi:start="6.2216194"
       transform="translate(72.142857,21.703412)"
       d="m 253.53151,631.06572 c 0.30392,4.93027 -1.13392,9.81062 -4.06236,13.78858"
       sodipodi:ry="21.071428"
       sodipodi:rx="21.071428"
       sodipodi:cy="632.36218"
       sodipodi:cx="232.5"
       id="path3137"
       style="fill:none;stroke:#800000"
       sodipodi:type="arc"
       sodipodi:open="true" />
    <path
       sodipodi:open="true"
       sodipodi:type="arc"
       style="fill:none;stroke:#800000"
       id="path3139"
       sodipodi:cx="232.5"
       sodipodi:cy="632.36218"
       sodipodi:rx="27.857143"
       sodipodi:ry="27.857143"
       d="m 260.30437,630.64822 c 0.40179,6.51798 -1.49908,12.96997 -5.37058,18.22897"
       transform="translate(72.142857,21.703412)"
       sodipodi:start="6.2216194"
       sodipodi:end="6.9177741" />
    <path
       sodipodi:end="6.9177741"
       sodipodi:start="6.2216194"
       transform="translate(72.142857,21.703412)"
       d="m 267.79016,630.18676 c 0.50997,8.27283 -1.90267,16.46189 -6.8165,23.13678"
       sodipodi:ry="35.357143"
       sodipodi:rx="35.357143"
       sodipodi:cy="632.36218"
       sodipodi:cx="232.5"
       id="path3141"
       style="fill:none;stroke:#800000"
       sodipodi:type="arc"
       sodipodi:open="true" />
    <text
       xml:space="preserve"
       style="font-size:12px;font-style:normal;font-weight:normal;line-height:125%;letter-spacing:0px;word-spacing:0px;fill:#000000;fill-opacity:1;stroke:none;font-family:Sans"
       x="338.21426"
       y="671.56555"
       id="text3143"
       sodipodi:linespacing="125%"><tspan
         sodipodi:role="line"
         id="tspan3145"
         x="338.21426"
         y="671.56555">IR</tspan></text>
    <path
       style="fill:none;stroke:#ff0000;stroke-width:3;stroke-linecap:butt;stroke-linejoin:miter;stroke-miterlimit:4;stroke-opacity:1;stroke-dasharray:none"
       d="m 239.28571,509.77988 c -81.42857,-2.85714 -63.57143,123.57143 12.14286,136.42857"
       id="path3147"
       inkscape:connector-curvature="0"
       sodipodi:nodetypes="cc" />
    <rect
       style="fill:#333333;stroke:#000000"
       id="rect3123"
       width="62.857143"
       height="153.57143"
       x="240"
       y="361.64792" />
    <text
       xml:space="preserve"
       style="font-size:12px;font-style:normal;font-weight:normal;line-height:125%;letter-spacing:0px;word-spacing:0px;fill:#000000;fill-opacity:1;stroke:none;font-family:Sans"
       x="189.87746"
       y="571.10693"
       id="text3149"
       sodipodi:linespacing="125%"><tspan
         sodipodi:role="line"
         id="tspan3151"
         x="189.87746"
         y="571.10693">USB</tspan></text>
    <rect
       style="fill:#1a1a1a;stroke:none"
       id="rect3153"
       width="13.571428"
       height="21.010153"
       x="491.42859"
       y="534.46301" />
    <path
       style="fill:#333333;stroke:#ffffff"
       d="m 518.38229,618.8965 -40.40611,0 c 0,0 0.0789,-30.49961 0,-44.95179 -0.022,-4.02055 8.28996,-7.84953 8.20749,-11.86929 -0.0627,-3.05583 0,-6.81853 0,-6.81853 l 24.1174,0 c 0,0 0.0745,3.75809 0,6.81853 -0.0972,3.99091 7.98035,7.87847 8.08122,11.86929 0.37221,14.72577 0,44.95179 0,44.95179 z"
       id="rect3057"
       inkscape:connector-curvature="0"
       sodipodi:nodetypes="ccssccssc" />
    <path
       style="fill:none;stroke:#ff0000;stroke-width:2;stroke-linecap:butt;stroke-linejoin:miter;stroke-miterlimit:4;stroke-opacity:1;stroke-dasharray:none"
       d="m 496.93294,526.706 c 0,-13.15003 1.78585,-41.69943 9.10778,-54.67643"
       id="path3159"
       inkscape:connector-curvature="0"
       sodipodi:nodetypes="cc" />
    <path
       sodipodi:nodetypes="cc"
       inkscape:connector-curvature="0"
       id="path3161"
       d="m 498.36161,526.706 c 0,-13.15003 4.46461,-39.62311 11.78654,-52.60011"
       style="fill:none;stroke:#008000;stroke-width:2;stroke-linecap:butt;stroke-linejoin:miter;stroke-miterlimit:4;stroke-opacity:1;stroke-dasharray:none" />
    <path
       style="fill:none;stroke:#0000ff;stroke-width:2;stroke-linecap:butt;stroke-linejoin:miter;stroke-miterlimit:4;stroke-opacity:1;stroke-dasharray:none"
       d="m 499.79027,526.706 c 0,-13.15003 7.50053,-37.02772 14.82246,-50.00472"
       id="path3163"
       inkscape:connector-curvature="0"
       sodipodi:nodetypes="cc" />
    <rect
       style="fill:#000000;stroke:none"
       id="rect3155"
       width="5.357512"
       height="21.801365"
       x="495.5043"
       y="526.35992" />
    <path
       sodipodi:type="arc"
       style="fill:none;stroke:#ff6600;stroke-width:5;stroke-miterlimit:4;stroke-dasharray:none;marker-start:url(#Arrow1Sstart);marker-end:none"
       id="path3952"
       sodipodi:cx="384.86813"
       sodipodi:cy="560.41791"
       sodipodi:rx="67.680222"
       sodipodi:ry="67.680222"
       d="m 351.28934,501.65502 c 32.45385,-18.54506 73.79663,-7.26975 92.34168,25.1841 17.00146,29.75255 9.08285,67.51746 -18.43826,87.93444"
       sodipodi:start="4.1932429"
       sodipodi:end="7.2157064"
       sodipodi:open="true"
       transform="translate(-3.6342267e-6,8.3595191e-6)" />
    <path
       sodipodi:end="3.5032601"
       sodipodi:start="1.4056898"
       d="m 395.99188,627.17774 c -36.87044,6.14347 -71.7401,-18.76565 -77.88357,-55.63609 -1.96461,-11.79068 -0.7715,-23.89136 3.45796,-35.07133"
       sodipodi:ry="67.680222"
       sodipodi:rx="67.680222"
       sodipodi:cy="560.41791"
       sodipodi:cx="384.86813"
       id="path3954"
       style="fill:none;stroke:#ff6600;stroke-width:5;stroke-miterlimit:4;stroke-dasharray:none;marker-start:url(#Arrow1Sstart);marker-end:none"
       sodipodi:type="arc"
       sodipodi:open="true"
       transform="translate(-3.6342267e-6,8.3595191e-6)" />
    <text
       xml:space="preserve"
       style="font-size:12px;font-style:normal;font-weight:normal;text-align:center;line-height:125%;letter-spacing:0px;word-spacing:0px;text-anchor:middle;fill:#000000;fill-opacity:1;stroke:none;font-family:Sans"
       id="text4958"
       sodipodi:linespacing="125%"><textPath
         xlink:href="#path4975"
         startOffset="50%"
         id="textPath4981"><tspan
   id="tspan4960" /><tspan
   id="tspan4962">Feedback</tspan></textPath></text>
    <text
       xml:space="preserve"
       style="font-size:12px;font-style:normal;font-weight:normal;text-align:center;line-height:125%;letter-spacing:0px;word-spacing:0px;text-anchor:middle;fill:#000000;fill-opacity:1;stroke:none;font-family:Sans"
       id="text4964"
       sodipodi:linespacing="125%"><textPath
         xlink:href="#path4977"
         startOffset="50%"
         id="textPath5172"><tspan
   id="tspan4966">Control</tspan></textPath></text>
    <path
       transform="translate(-3.6342267e-6,8.3595191e-6)"
       sodipodi:open="true"
       sodipodi:end="7.2157064"
       sodipodi:start="4.1932429"
       d="m 358.02265,513.43832 c 25.94612,-14.82635 58.99873,-5.812 73.82507,20.13411 13.59228,23.78649 7.26153,53.97867 -14.74096,70.30158"
       sodipodi:ry="54.108795"
       sodipodi:rx="54.108795"
       sodipodi:cy="560.41791"
       sodipodi:cx="384.86813"
       id="path4975"
       style="fill:none;stroke:none;stroke-width:5;marker-start:none;marker-end:none"
       sodipodi:type="arc" />
    <path
       transform="translate(-3.6342267e-6,8.3595191e-6)"
       sodipodi:open="true"
       sodipodi:type="arc"
       style="fill:none;stroke:none;stroke-width:5;marker-start:none;marker-end:none"
       id="path4977"
       sodipodi:cx="384.86813"
       sodipodi:cy="560.41791"
       sodipodi:rx="53.751648"
       sodipodi:ry="53.751648"
       d="m 393.70262,613.43858 c -29.28251,4.87915 -56.97601,-14.90368 -61.85516,-44.18619 -1.56029,-9.36417 -0.61272,-18.97453 2.74632,-27.85366"
       sodipodi:start="1.4056898"
       sodipodi:end="3.5032601" />
    <g
       id="g4014"
       transform="translate(-156.18275,8)">
      <g
         inkscape:corner7="1.7403885 : 0.073529179 : 0.25 : 1"
         inkscape:corner0="2.7943839 : 0.12134181 : 0 : 1"
         inkscape:perspectiveID="#perspective4010"
         id="g3029"
         style="fill:#4d4d4d;stroke:#ffffff"
         sodipodi:type="inkscape:box3d">
        <path
           d="m 609.87218,452.40534 43.91965,23.34387 81.7174,-20.00434 -62.50094,-16.68761 z"
           inkscape:box3dsidetype="13"
           style="fill:#afafde;fill-rule:evenodd;stroke:none"
           id="path3039"
           sodipodi:type="inkscape:box3dside" />
        <path
           d="m 609.87218,424.74012 0,27.66522 63.13611,-13.34808 0,-25.95512 z"
           inkscape:box3dsidetype="6"
           style="fill:#353564;fill-rule:evenodd;stroke:none"
           id="path3031"
           sodipodi:type="inkscape:box3dside" />
        <path
           d="m 673.00829,413.10214 62.50094,7.53944 0,35.10329 -62.50094,-16.68761 z"
           inkscape:box3dsidetype="11"
           style="fill:#e9e9ff;fill-rule:evenodd;stroke:none"
           id="path3041"
           sodipodi:type="inkscape:box3dside" />
        <path
           d="m 609.87218,424.74012 43.91965,12.7034 81.7174,-16.80194 -62.50094,-7.53944 z"
           inkscape:box3dsidetype="5"
           style="fill:#333333;fill-rule:evenodd;stroke:none"
           id="path3033"
           sodipodi:type="inkscape:box3dside" />
        <path
           d="m 653.79183,437.44352 0,38.30569 81.7174,-20.00434 0,-35.10329 z"
           inkscape:box3dsidetype="14"
           style="fill:#999999;fill-rule:evenodd;stroke:none"
           id="path3037"
           sodipodi:type="inkscape:box3dside" />
        <path
           d="m 609.87218,424.74012 43.91965,12.7034 0,38.30569 -43.91965,-23.34387 z"
           inkscape:box3dsidetype="3"
           style="fill:#666666;fill-rule:evenodd;stroke:none"
           id="path3035"
           sodipodi:type="inkscape:box3dside" />
      </g>
      <g
         sodipodi:type="inkscape:box3d"
         style="fill:#4d4d4d;stroke:#ffffff"
         id="g5380"
         inkscape:perspectiveID="#perspective3013"
         inkscape:corner0="2.641376 : 0.12718189 : 0 : 1"
         inkscape:corner7="1.7360185 : 0.12507952 : 0.21035914 : 1">
        <path
           sodipodi:type="inkscape:box3dside"
           id="path5382"
           style="fill:#afafde;fill-rule:evenodd;stroke:none"
           inkscape:box3dsidetype="13"
           d="m 615.68055,423.87439 39.37397,10.64288 69.76907,-14.14002 -53.62294,-6.73799 z" />
        <path
           sodipodi:type="inkscape:box3dside"
           id="path5384"
           style="fill:#353564;fill-rule:evenodd;stroke:none"
           inkscape:box3dsidetype="6"
           d="m 615.68055,422.60681 0,1.26758 55.5201,-10.23513 0,-1.19836 z" />
        <path
           sodipodi:type="inkscape:box3dside"
           id="path5386"
           style="fill:#e9e9ff;fill-rule:evenodd;stroke:none"
           inkscape:box3dsidetype="11"
           d="m 671.20065,412.4409 53.62294,6.36976 0,1.56659 -53.62294,-6.73799 z" />
        <path
           sodipodi:type="inkscape:box3dside"
           id="path5388"
           style="fill:#cccccc;fill-rule:evenodd;stroke:none"
           inkscape:box3dsidetype="5"
           d="m 615.68055,422.60681 39.37397,10.22343 69.76907,-14.01958 -53.62294,-6.36976 z" />
        <path
           sodipodi:type="inkscape:box3dside"
           id="path5390"
           style="fill:#ececec;fill-rule:evenodd;stroke:none"
           inkscape:box3dsidetype="14"
           d="m 655.05452,432.83024 0,1.68703 69.76907,-14.14002 0,-1.56659 z" />
        <path
           sodipodi:type="inkscape:box3dside"
           id="path5392"
           style="fill:#e6e6e6;fill-rule:evenodd;stroke:none"
           inkscape:box3dsidetype="3"
           d="m 615.68055,422.60681 39.37397,10.22343 0,1.68703 -39.37397,-10.64288 z" />
      </g>
    </g>
    <path
       sodipodi:nodetypes="cc"
       inkscape:connector-curvature="0"
       id="path3902"
       d="m 303.93547,401.69355 c 46.8608,-0.003 118.25604,-119.18166 53.55912,-125.21696"
       style="fill:none;stroke:#ff0000;stroke-width:3;stroke-linecap:butt;stroke-linejoin:miter;stroke-miterlimit:4;stroke-opacity:1;stroke-dasharray:none" />
    <g
       id="g3111"
       transform="translate(135.03046,-2.9898475)">
      <text
         xml:space="preserve"
         style="font-size:12px;font-style:normal;font-weight:bold;line-height:125%;letter-spacing:0px;word-spacing:0px;fill:#000000;fill-opacity:1;stroke:none;font-family:Sans;-inkscape-font-specification:Sans Bold"
         x="155.29208"
         y="301.13541"
         id="text3092"
         sodipodi:linespacing="125%"><tspan
           id="tspan3110"
           sodipodi:role="line"
           x="155.29208"
           y="301.13541">IR Receiver</tspan></text>
      <path
         style="fill:#333333;stroke:#000000;stroke-width:1px;stroke-linecap:butt;stroke-linejoin:miter;stroke-opacity:1"
         d="m 225.60835,276.60226 c 0,0 -38.18823,-8.82883 -60.6076,-6.07643 l -0.43453,17.43253 c 26.49039,-6.66578 60.42996,-3.23504 60.42996,-3.23504 z"
         id="path3096"
         inkscape:connector-curvature="0"
         sodipodi:nodetypes="ccccc" />
      <path
         sodipodi:type="arc"
         style="fill:none;stroke:#800000"
         id="path3098"
         sodipodi:cx="232.5"
         sodipodi:cy="632.36218"
         sodipodi:rx="14.285714"
         sodipodi:ry="14.285714"
         d="m 246.75865,631.48323 c 0.20605,3.34255 -0.76876,6.65126 -2.75414,9.34819"
         transform="matrix(0.9420563,0.33545482,0.33545482,-0.9420563,-325.22474,796.23027)"
         sodipodi:start="6.2216194"
         sodipodi:end="6.9177741"
         sodipodi:open="true" />
      <path
         sodipodi:end="6.9177741"
         sodipodi:start="6.2216194"
         transform="matrix(0.9420563,0.33545482,0.33545482,-0.9420563,-325.22474,796.23027)"
         d="m 253.53151,631.06572 c 0.30392,4.93027 -1.13392,9.81062 -4.06236,13.78858"
         sodipodi:ry="21.071428"
         sodipodi:rx="21.071428"
         sodipodi:cy="632.36218"
         sodipodi:cx="232.5"
         id="path3100"
         style="fill:none;stroke:#800000"
         sodipodi:type="arc"
         sodipodi:open="true" />
      <path
         sodipodi:open="true"
         sodipodi:type="arc"
         style="fill:none;stroke:#800000"
         id="path3102"
         sodipodi:cx="232.5"
         sodipodi:cy="632.36218"
         sodipodi:rx="27.857143"
         sodipodi:ry="27.857143"
         d="m 260.30437,630.64822 c 0.40179,6.51798 -1.49908,12.96997 -5.37058,18.22897"
         transform="matrix(0.9420563,0.33545482,0.33545482,-0.9420563,-325.22474,796.23027)"
         sodipodi:start="6.2216194"
         sodipodi:end="6.9177741" />
      <path
         sodipodi:end="6.9177741"
         sodipodi:start="6.2216194"
         transform="matrix(0.9420563,0.33545482,0.33545482,-0.9420563,-325.22474,796.23027)"
         d="m 267.79016,630.18676 c 0.50997,8.27283 -1.90267,16.46189 -6.8165,23.13678"
         sodipodi:ry="35.357143"
         sodipodi:rx="35.357143"
         sodipodi:cy="632.36218"
         sodipodi:cx="232.5"
         id="path3104"
         style="fill:none;stroke:#800000"
         sodipodi:type="arc"
         sodipodi:open="true" />
      <text
         xml:space="preserve"
         style="font-size:12px;font-style:normal;font-weight:normal;line-height:125%;letter-spacing:0px;word-spacing:0px;fill:#000000;fill-opacity:1;stroke:none;font-family:Sans"
         x="142.84766"
         y="283.08035"
         id="text3106"
         sodipodi:linespacing="125%"><tspan
           sodipodi:role="line"
           id="tspan3108"
           x="142.84766"
           y="283.08035">IR</tspan></text>
      <text
         sodipodi:linespacing="125%"
         id="text3904"
         y="315.60001"
         x="62.179909"
         style="font-size:12px;font-style:normal;font-weight:normal;line-height:125%;letter-spacing:0px;word-spacing:0px;fill:#000000;fill-opacity:1;stroke:none;font-family:Sans"
         xml:space="preserve"><tspan
           y="315.60001"
           x="62.179909"
           id="tspan3906"
           sodipodi:role="line">Remote</tspan><tspan
           id="tspan3988"
           y="330.60001"
           x="62.179909"
           sodipodi:role="line">Control</tspan></text>
      <g
         transform="matrix(-0.0028712,0.99999588,-0.99999588,-0.0028712,312.89999,329.28229)"
         id="g3970">
        <g
           id="g3947">
          <path
             sodipodi:nodetypes="ccsssssssssssssc"
             inkscape:connector-curvature="0"
             id="path3919"
             d="m -28.01466,365.27211 36.4694,0.27548 c 0,0 -10.45475,-28.83375 -12.98725,-42.23977 -2.08298,-11.02644 -1.43999,-22.40015 -2.5,-33.57143 -0.29432,-3.10184 0.32171,-6.49874 -1.07143,-9.28571 -5.52767,-11.05809 -10.55598,-25.78774 -14.28572,-27.85714 -2.76595,-1.53466 -5.77965,-2.9143 -8.92857,-3.21429 -6.11797,-0.58284 -12.57807,0.40717 -18.21428,2.85714 -8.32127,3.61713 -15.81928,9.65389 -21.42857,16.78572 -0.88927,1.13064 -0.94291,2.76288 -1.78572,3.92857 -1.23403,1.70679 -3.99236,2.28252 -4.64286,4.28571 -0.56245,1.73205 -0.26243,4.11732 1.07143,5.35715 1.40601,1.30688 3.81223,0.97305 5.71429,0.71428 1.53349,-0.20863 2.9034,-1.08977 4.28571,-1.78571 7.67726,-3.86525 14.3296,-9.63193 22.14286,-13.21429 1.36883,-0.6276 4.28571,-1.42857 4.28571,-1.42857"
             style="fill:#c87137;stroke:#000000;stroke-width:1px;stroke-linecap:butt;stroke-linejoin:miter;stroke-opacity:1" />
          <path
             sodipodi:nodetypes="cssssssc"
             inkscape:connector-curvature="0"
             id="path3921"
             d="m -52.72078,270.51503 c 0,0 -15.27954,11.5331 -15.67887,11.81319 -1.15815,0.81235 -3.54272,2.56019 -4.52572,3.83674 -2.00301,2.60117 -1.08129,2.21794 -2.5,5.17857 -1.52724,3.18713 -1.73632,6.5139 -1.25,7.85715 0.31652,0.87426 0.91943,1.80511 1.78571,2.14286 1.67846,0.6544 3.89123,0.3329 5.35715,-0.71429 4.976,-3.55465 15.89286,-11.78572 15.89286,-11.78572"
             style="fill:#c87137;stroke:#000000;stroke-width:1px;stroke-linecap:butt;stroke-linejoin:miter;stroke-opacity:1" />
          <path
             sodipodi:nodetypes="csssssc"
             inkscape:connector-curvature="0"
             id="path3923"
             d="m -59.30812,282.58175 c 0,0 -14.39515,19.10579 -14.50009,19.38687 -0.41035,1.09904 -1.45269,3.96613 -1.79573,5.62492 -0.25429,1.22964 -0.8604,2.59961 -0.35714,3.75 0.62984,1.43973 2.20574,2.56593 3.75,2.85714 1.2775,0.24091 2.83107,-1.26748 3.92857,-1.96429 4.20249,-2.66822 8.57142,-11.96428 8.57142,-11.96428"
             style="fill:#c87137;stroke:#000000;stroke-width:1px;stroke-linecap:butt;stroke-linejoin:miter;stroke-opacity:1" />
          <path
             sodipodi:nodetypes="cc"
             transform="translate(184.39606,183.18176)"
             inkscape:connector-curvature="0"
             id="path3925"
             d="m -210.89286,71.554633 -18.80076,10.203952"
             style="fill:none;stroke:#000000;stroke-width:1px;stroke-linecap:butt;stroke-linejoin:miter;stroke-opacity:1" />
          <path
             transform="translate(184.39606,183.18176)"
             inkscape:connector-curvature="0"
             id="path3927"
             d="m -209.46429,87.268919 -10,2.857143"
             style="fill:none;stroke:#000000;stroke-width:1px;stroke-linecap:butt;stroke-linejoin:miter;stroke-opacity:1" />
          <path
             sodipodi:nodetypes="cac"
             transform="translate(184.39606,183.18176)"
             inkscape:connector-curvature="0"
             id="path3929"
             d="m -201.07143,99.054633 c 0,0 -4.53299,0.09785 -6.68681,0.719781 -1.81786,0.524916 -5.0989,2.494506 -5.0989,2.494506"
             style="fill:none;stroke:#000000;stroke-width:1px;stroke-linecap:butt;stroke-linejoin:miter;stroke-opacity:1" />
        </g>
        <g
           id="g3965">
          <rect
             ry="5.0507627"
             rx="5.0507627"
             transform="translate(184.39606,183.18176)"
             y="15.879192"
             x="-252.03307"
             height="117.1777"
             width="38.890873"
             id="rect3959"
             style="fill:#333333;stroke:#000000;stroke-width:0.80000001;stroke-linejoin:round;stroke-miterlimit:4;stroke-opacity:1;stroke-dasharray:none" />
          <path
             transform="translate(186.41636,183.18176)"
             d="m -221.72848,79.013725 c 0,7.113121 -5.76632,12.879445 -12.87945,12.879445 -7.11312,0 -12.87944,-5.766324 -12.87944,-12.879445 0,-7.113121 5.76632,-12.879445 12.87944,-12.879445 7.11313,0 12.87945,5.766324 12.87945,12.879445 z"
             sodipodi:ry="12.879445"
             sodipodi:rx="12.879445"
             sodipodi:cy="79.013725"
             sodipodi:cx="-234.60793"
             id="path3961"
             style="fill:#b3b3b3;stroke:#000000;stroke-width:0.80000001;stroke-linejoin:round;stroke-miterlimit:4;stroke-opacity:1;stroke-dasharray:none"
             sodipodi:type="arc" />
          <path
             sodipodi:type="arc"
             style="fill:#1a1a1a;stroke:#000000;stroke-width:0.80000001;stroke-linejoin:round;stroke-miterlimit:4;stroke-opacity:1;stroke-dasharray:none"
             id="path3963"
             sodipodi:cx="-234.60793"
             sodipodi:cy="79.013725"
             sodipodi:rx="4.7982244"
             sodipodi:ry="4.7982244"
             d="m -229.8097,79.013725 c 0,2.649986 -2.14824,4.798225 -4.79823,4.798225 -2.64998,0 -4.79822,-2.148239 -4.79822,-4.798225 0,-2.649986 2.14824,-4.798224 4.79822,-4.798224 2.64999,0 4.79823,2.148238 4.79823,4.798224 z"
             transform="translate(186.41636,183.18176)" />
        </g>
        <g
           id="g3955">
          <path
             transform="translate(184.39606,183.18176)"
             inkscape:connector-curvature="0"
             id="path3931"
             d="m -200.17857,120.12606 -2.67857,-3.03571 -6.42858,-4.64286 -4.64285,-10.35714 -3.03572,-9.64286 -3.21428,-4.821428 -8.39286,-7.321429 -5.53571,-2.321429 -4.46429,2.678572 -2.32143,4.464286 2.5,6.607142 3.21429,5.535715 4.64285,6.250001 1.42858,7.85714 0.17857,8.03572 -2.85715,7.32142 -0.35714,6.96429 2.14286,11.25 5,10.89286 5.89286,11.07143 5.89285,8.21428 0.89286,6.96429 36.60714,0.17857"
             style="fill:#c87137;stroke:#000000;stroke-width:1px;stroke-linecap:butt;stroke-linejoin:miter;stroke-opacity:1" />
          <path
             sodipodi:nodetypes="sssss"
             transform="translate(184.39606,183.18176)"
             inkscape:connector-curvature="0"
             id="path3937"
             d="m -227.28432,84.190758 c 2.54154,-0.662869 -3.75855,-4.946529 -6.37659,-4.73509 -2.31561,0.187014 -4.85634,2.426266 -5.1139,4.73509 -0.18962,1.699796 1.50972,4.330018 3.21986,4.356283 1.50001,0.02304 4.53162,-3.381099 8.27063,-4.356283 z"
             style="fill:#d38d5f;stroke:#000000;stroke-width:0.80000001;stroke-linecap:butt;stroke-linejoin:round;stroke-miterlimit:4;stroke-opacity:1;stroke-dasharray:none" />
        </g>
      </g>
      <rect
         ry="0"
         rx="0"
         y="223.55714"
         x="-52.432259"
         height="127.27923"
         width="319.71326"
         id="rect3986"
         style="fill:none;stroke:#000000;stroke-width:1;stroke-miterlimit:4;stroke-dasharray:3.99999996, 3.99999996;stroke-dashoffset:0" />
      <text
         sodipodi:linespacing="125%"
         id="text3990"
         y="236.68913"
         x="-48.896725"
         style="font-size:12px;font-style:normal;font-weight:normal;line-height:125%;letter-spacing:0px;word-spacing:0px;fill:#000000;fill-opacity:1;stroke:none;font-family:Sans"
         xml:space="preserve"><tspan
           y="236.68913"
           x="-48.896725"
           id="tspan3992"
           sodipodi:role="line">Only required when recording tests</tspan></text>
    </g>
  </g>
</svg>
